<?xml version="1.0" encoding="utf-8"?>
<!-- Generator: Adobe Illustrator 16.0.0, SVG Export Plug-In . SVG Version: 6.00 Build 0)  -->
<!DOCTYPE svg PUBLIC "-//W3C//DTD SVG 1.1//EN" "http://www.w3.org/Graphics/SVG/1.1/DTD/svg11.dtd">
<svg version="1.1" id="burger_1_" xmlns="http://www.w3.org/2000/svg" xmlns:xlink="http://www.w3.org/1999/xlink" x="0px" y="0px"
	 width="350.191px" height="300.769px" viewBox="0 0 350.191 300.769" enable-background="new 0 0 350.191 300.769"
	 xml:space="preserve">
<rect id="background" x="-1039.861" y="-209.616" display="none" fill="#CEEAE9" width="720" height="720"/>
<circle id="circle" display="none" opacity="0.5" fill="#FFFFFF" cx="-679.861" cy="150.384" r="252.398"/>
<g id="burger">
	<g>
		<path fill="#F5A11E" d="M-832.427,238.133c-8.331,0-14.104,9.584-11.22,18.603c8.194,25.63,29.606,44.033,54.572,44.033h213.28
			c24.966,0,46.378-18.403,54.572-44.033c2.884-9.019-2.889-18.603-11.22-18.603H-832.427z"/>
		<path fill="#EE8E22" d="M-829.966,281.233c10.522,12.055,24.982,19.536,40.892,19.536h213.28c15.909,0,30.369-7.481,40.892-19.536
			H-829.966z"/>
	</g>
	<path fill="#F15C49" d="M-530,238.133h-302.647c-3.679,0-6.689-3.01-6.689-6.689v-3.173c0-3.679,3.011-6.689,6.689-6.689H-530
		c3.68,0,6.69,3.011,6.69,6.689v3.173C-523.31,235.124-526.32,238.133-530,238.133z"/>
	<path fill="#91C23E" d="M-516.551,181.587c0,0,20.668,24.249,7.265,37.205c-13.403,12.957-39.795,3.06-43.919,6.359
		c-4.123,3.299-14.859,41.611-36.295,25.342c-21.436-16.271-25.723-30.291-39.249-25.342c-13.526,4.948-14.264,34.562-31.214,27.59
		c-16.951-6.972-10.354-16.044-23.137-21.817c-12.783-5.772-17.802,25.464-28.488,25.928s-19.274-18.505-30.238-19.33
		c-10.963-0.824-31.358,40.412-43.841,23.093s-5.06-30.206-17.431-34.071c-12.371-3.866-24.742,17.576-39.587,9.329
		c-14.846-8.247-14.021-27.744-7.423-32.429c6.598-4.684,15.884-25.147,15.884-25.147L-516.551,181.587z"/>
	<g>
		<ellipse fill="#F15C49" cx="-592.387" cy="181.587" rx="75.836" ry="37.533"/>
		<ellipse fill="#F15C49" cx="-592.387" cy="181.587" rx="56.781" ry="24.573"/>
		<path fill="#F7A197" d="M-592.388,149.897c-38.15,0-69.077,14.188-69.077,31.69s30.927,31.69,69.077,31.69
			s69.078-14.188,69.078-31.69S-554.237,149.897-592.388,149.897z M-595.274,206.128c-5.651-0.122-11.081-0.605-16.179-1.393
			l14.259-14.259c0.604,0.328,1.248,0.592,1.92,0.791V206.128z M-596.827,172.52l-14.151-14.151
			c4.961-0.743,10.227-1.204,15.704-1.322v14.859C-595.813,172.066-596.33,172.276-596.827,172.52z M-589.5,157.046
			c5.651,0.122,11.08,0.605,16.178,1.393l-14.258,14.258c-0.605-0.327-1.249-0.591-1.92-0.791V157.046z M-587.947,190.655
			l14.151,14.151c-4.961,0.743-10.228,1.204-15.704,1.322v-14.86C-588.961,191.108-588.445,190.899-587.947,190.655z
			 M-568.527,159.29c17.513,3.516,30.182,10.777,32.518,19.411h-46.696c-0.2-0.672-0.464-1.315-0.791-1.921l16.23-16.23
			L-568.527,159.29z M-618.772,159.83l17.317,17.318c-0.244,0.497-0.453,1.014-0.613,1.553h-46.696
			C-646.543,170.488-634.971,163.516-618.772,159.83z M-648.765,184.474h46.696c0.199,0.672,0.463,1.315,0.791,1.92l-17.05,17.05
			C-634.758,199.785-646.522,192.761-648.765,184.474z M-592.409,206.16h0.043c-0.007,0-0.014,0.001-0.021,0.001
			C-592.395,206.161-592.401,206.16-592.409,206.16z M-566.002,203.345l-17.318-17.318c0.244-0.497,0.453-1.014,0.614-1.553h46.696
			C-538.232,192.687-549.804,199.659-566.002,203.345z"/>
		
			<ellipse transform="matrix(0.9392 -0.3434 0.3434 0.9392 -103.0895 -203.6509)" fill="#FFFFFF" cx="-626.472" cy="189.207" rx="3.128" ry="0.561"/>
		
			<ellipse transform="matrix(0.9392 -0.3433 0.3433 0.9392 -103.0051 -201.4977)" fill="#FFFFFF" cx="-620.594" cy="190.169" rx="3.128" ry="0.561"/>
		
			<ellipse transform="matrix(0.9392 -0.3434 0.3434 0.9392 -104.3751 -201.8119)" fill="#FFFFFF" cx="-621.923" cy="193.755" rx="3.128" ry="0.561"/>
		
			<ellipse transform="matrix(-0.9392 -0.3434 0.3434 -0.9392 -1150.8468 174.5863)" fill="#FFFFFF" cx="-559.963" cy="189.207" rx="3.128" ry="0.562"/>
		
			<ellipse transform="matrix(-0.9392 -0.3433 0.3433 -0.9392 -1162.5798 174.521)" fill="#FFFFFF" cx="-565.842" cy="190.169" rx="3.128" ry="0.561"/>
		
			<ellipse transform="matrix(-0.9392 -0.3434 0.3434 -0.9392 -1161.2317 181.8768)" fill="#FFFFFF" cx="-564.512" cy="193.755" rx="3.128" ry="0.562"/>
		
			<ellipse transform="matrix(0.2938 -0.9559 0.9559 0.2938 -616.6075 -433.9758)" fill="#FFFFFF" cx="-602.005" cy="200.312" rx="3.128" ry="0.562"/>
		
			<ellipse transform="matrix(0.2938 -0.9559 0.9559 0.2938 -614.4011 -430.3448)" fill="#FFFFFF" cx="-598.444" cy="200.635" rx="3.128" ry="0.561"/>
		
			<ellipse transform="matrix(-0.2938 -0.9559 0.9559 -0.2938 -945.8172 -298.1497)" fill="#FFFFFF" cx="-583.046" cy="200.312" rx="3.128" ry="0.562"/>
		
			<ellipse transform="matrix(-0.2938 -0.9559 0.9559 -0.2938 -950.7319 -301.1362)" fill="#FFFFFF" cx="-586.606" cy="200.635" rx="3.128" ry="0.562"/>
	</g>
	<g>
		<ellipse fill="#F15C49" cx="-741.854" cy="178.296" rx="97.483" ry="48.247"/>
		<ellipse fill="#F15C49" cx="-741.853" cy="178.296" rx="72.989" ry="31.587"/>
		<path fill="#F7A197" d="M-741.854,137.561c-49.04,0-88.796,18.238-88.796,40.736s39.756,40.736,88.796,40.736
			s88.796-18.238,88.796-40.736S-692.813,137.561-741.854,137.561z M-745.564,209.843c-7.265-0.157-14.244-0.779-20.797-1.79
			l18.328-18.329c0.778,0.421,1.605,0.76,2.469,1.017V209.843z M-747.561,166.64l-18.189-18.19
			c6.375-0.956,13.145-1.548,20.186-1.701v19.102C-746.258,166.057-746.921,166.327-747.561,166.64z M-738.142,146.75
			c7.264,0.158,14.244,0.779,20.796,1.79l-18.328,18.328c-0.778-0.421-1.604-0.76-2.468-1.017V146.75z M-736.146,189.952
			l18.19,18.19c-6.377,0.957-13.146,1.548-20.187,1.701v-19.103C-737.449,190.535-736.785,190.265-736.146,189.952z
			 M-711.182,149.633c22.511,4.52,38.796,13.854,41.799,24.952h-60.025c-0.257-0.863-0.596-1.691-1.017-2.469l20.862-20.863
			L-711.182,149.633z M-775.77,150.328l22.261,22.262c-0.313,0.639-0.583,1.303-0.79,1.996h-60.025
			C-811.467,164.029-796.592,155.067-775.77,150.328z M-814.324,182.007h60.026c0.257,0.863,0.595,1.69,1.017,2.468l-21.916,21.917
			C-796.318,201.687-811.441,192.66-814.324,182.007z M-741.881,209.883h0.055c-0.009,0-0.018,0-0.027,0
			S-741.871,209.883-741.881,209.883z M-707.936,206.265l-22.263-22.262c0.314-0.64,0.584-1.303,0.789-1.996h60.026
			C-672.24,192.564-687.114,201.526-707.936,206.265z"/>
		
			<ellipse transform="matrix(0.9392 -0.3433 0.3433 0.9392 -112.3254 -258.2974)" fill="#FFFFFF" cx="-785.667" cy="188.09" rx="4.021" ry="0.722"/>
		
			<ellipse transform="matrix(0.9392 -0.3433 0.3433 0.9392 -112.2909 -255.6279)" fill="#FFFFFF" cx="-778.11" cy="189.327" rx="4.021" ry="0.721"/>
		
			<ellipse transform="matrix(0.9392 -0.3433 0.3433 0.9392 -113.9776 -255.9344)" fill="#FFFFFF" cx="-779.819" cy="193.938" rx="4.021" ry="0.722"/>
		
			<ellipse transform="matrix(-0.9392 -0.3434 0.3434 -0.9392 -1422.3619 124.3395)" fill="#FFFFFF" cx="-700.173" cy="188.09" rx="4.02" ry="0.722"/>
		
			<ellipse transform="matrix(-0.9392 -0.3434 0.3434 -0.9392 -1437.4407 124.1443)" fill="#FFFFFF" cx="-707.73" cy="189.327" rx="4.02" ry="0.721"/>
		
			<ellipse transform="matrix(-0.9392 -0.3434 0.3434 -0.9392 -1435.7096 133.6715)" fill="#FFFFFF" cx="-706.021" cy="193.938" rx="4.02" ry="0.722"/>
		
			<ellipse transform="matrix(0.2937 -0.9559 0.9559 0.2937 -726.1783 -578.0223)" fill="#FFFFFF" cx="-754.216" cy="202.367" rx="4.021" ry="0.722"/>
		
			<ellipse transform="matrix(0.2938 -0.9559 0.9559 0.2938 -723.2504 -573.3527)" fill="#FFFFFF" cx="-749.639" cy="202.78" rx="4.021" ry="0.722"/>
		
			<ellipse transform="matrix(-0.2937 -0.9559 0.9559 -0.2937 -1137.6165 -435.8728)" fill="#FFFFFF" cx="-729.846" cy="202.367" rx="4.021" ry="0.721"/>
		
			<ellipse transform="matrix(-0.2937 -0.9559 0.9559 -0.2937 -1143.9313 -439.7128)" fill="#FFFFFF" cx="-734.422" cy="202.78" rx="4.021" ry="0.722"/>
	</g>
	<path fill="#683524" d="M-535.041,179.53h-296.117c-8.153,0-14.825-6.672-14.825-14.826v-16.547
		c0-8.154,6.672-14.826,14.825-14.826h296.117c8.154,0,14.825,6.672,14.825,14.826v16.547
		C-520.216,172.858-526.887,179.53-535.041,179.53z"/>
	<polygon fill="#FCF388" points="-845.983,125.359 -854.958,143.297 -729.696,164.946 -514.858,144.848 -536.39,111.269 
		-839.18,117.333 	"/>
	<polygon fill="#E5DE98" points="-744.328,122.77 -595.274,168.995 -524.305,124.289 -546.004,111.524 	"/>
	<polygon fill="#FCF388" points="-738.142,122.243 -595.274,168.995 -528.425,123.691 -549.107,111.524 	"/>
	<path fill="#91C23E" d="M-842.892,107.421c0,0-18.557,13.093-6.186,22.628c12.371,9.536,1.238,24.382,17.938,21.907
		c16.701-2.474,18.557-19.793,29.072-17.319c10.515,2.474,9.896,13.946,18.556,14.396c8.659,0.45,14.227-16.87,21.649-16.251
		c7.422,0.618,10.326,14.227,20.008,14.227c9.683,0,12.157-15.979,23.291-16.959c11.133-0.979,14.845,13.866,26.597,12.629
		c11.753-1.237,13.39-15.189,23.396-12.853c10.007,2.337,16.191,11.616,23.614,10.997s15.464-11.031,25.36-10.773
		c9.896,0.258,15.464,13.866,23.505,13.866s11.753-13.505,22.268-13.866c10.516-0.36,17.267,11.392,24.716,12.01
		c7.449,0.619,15.49-12.268,20.438-12.01c4.948,0.258,22.268,11.047,22.268-0.224c0-11.271-21.649-26.734-21.649-26.734
		L-842.892,107.421z"/>
	<path fill="#F5A11E" d="M-520.216,105.257L-520.216,105.257C-520.216,47.366-567.581,0-625.473,0h-115.254
		c-57.892,0-105.257,47.366-105.257,105.257l0,0c0,8.939,7.246,16.186,16.186,16.186h293.396
		C-527.462,121.443-520.216,114.196-520.216,105.257z"/>
	<g>
		<path fill="#F9C88F" d="M-723.286,30.737c0,3.352-1.594,3.914-3.561,3.914s-3.562-0.562-3.562-3.914
			c0-3.353,3.562-8.944,3.562-8.944S-723.286,27.385-723.286,30.737z"/>
		<path fill="#F9C88F" d="M-669.354,61.756c0,3.352-1.595,3.914-3.562,3.914s-3.561-0.562-3.561-3.914
			c0-3.353,3.561-8.944,3.561-8.944S-669.354,58.403-669.354,61.756z"/>
		<path fill="#F9C88F" d="M-787.36,57.245c0,3.353-1.595,3.914-3.562,3.914s-3.561-0.562-3.561-3.914
			c0-3.352,3.561-8.944,3.561-8.944S-787.36,53.893-787.36,57.245z"/>
		<path fill="#F9C88F" d="M-681.071,30.737c0,3.352-1.594,3.914-3.561,3.914s-3.562-0.562-3.562-3.914
			c0-3.353,3.562-8.944,3.562-8.944S-681.071,27.385-681.071,30.737z"/>
		<path fill="#F9C88F" d="M-703.179,11.008c0,3.352-1.595,3.914-3.562,3.914s-3.561-0.562-3.561-3.914
			c0-3.353,3.561-8.944,3.561-8.944S-703.179,7.655-703.179,11.008z"/>
		<path fill="#F9C88F" d="M-726.262,61.756c0,3.352-1.595,3.914-3.562,3.914s-3.561-0.562-3.561-3.914
			c0-3.353,3.561-8.944,3.561-8.944S-726.262,58.403-726.262,61.756z"/>
		<path fill="#F9C88F" d="M-607.463,18.866c0,3.353-1.594,3.914-3.561,3.914s-3.562-0.562-3.562-3.914s3.562-8.944,3.562-8.944
			S-607.463,15.513-607.463,18.866z"/>
		<path fill="#F9C88F" d="M-568.041,58.287c0,3.353-1.595,3.914-3.562,3.914s-3.561-0.562-3.561-3.914s3.561-8.944,3.561-8.944
			S-568.041,54.935-568.041,58.287z"/>
		<path fill="#F9C88F" d="M-572.134,29.223c0,3.353-1.595,3.914-3.561,3.914c-1.967,0-3.562-0.562-3.562-3.914
			s3.562-8.944,3.562-8.944S-572.134,25.871-572.134,29.223z"/>
		<path fill="#F9C88F" d="M-648.188,18.866c0,3.353-1.595,3.914-3.562,3.914s-3.561-0.562-3.561-3.914s3.561-8.944,3.561-8.944
			S-648.188,15.513-648.188,18.866z"/>
		<path fill="#F9C88F" d="M-765.501,25.295c0,3.353-1.595,3.914-3.562,3.914s-3.561-0.562-3.561-3.914s3.561-8.944,3.561-8.944
			S-765.501,21.942-765.501,25.295z"/>
		<path fill="#F9C88F" d="M-611.863,49.321c0,3.353-1.594,3.914-3.561,3.914s-3.562-0.562-3.562-3.914
			c0-3.352,3.562-8.944,3.562-8.944S-611.863,45.969-611.863,49.321z"/>
	</g>
	<path fill="#EE8E22" d="M-831.823,52.75c-8.982,15.481-14.16,33.413-14.16,52.506l0,0c0,8.939,7.246,16.186,16.186,16.186h293.396
		c6.78,0,12.579-4.174,14.988-10.088C-692.501,110.673-783.469,82.66-831.823,52.75z"/>
</g>
<g id="burger_2_">
	<g>
		<path fill="#F5A11E" d="M22.53,238.133c-8.331,0-14.104,9.584-11.22,18.603c8.194,25.63,29.606,44.033,54.572,44.033h213.28
			c24.966,0,46.378-18.403,54.572-44.033c2.884-9.019-2.889-18.603-11.22-18.603H22.53z"/>
		<path fill="#EE8E22" d="M24.991,281.233c10.522,12.055,24.982,19.536,40.892,19.536h213.28c15.909,0,30.369-7.481,40.892-19.536
			H24.991z"/>
	</g>
	<path fill="#F15C49" d="M324.957,238.133H22.31c-3.679,0-6.689-3.01-6.689-6.689v-3.173c0-3.679,3.011-6.689,6.689-6.689h302.647
		c3.68,0,6.69,3.011,6.69,6.689v3.173C331.647,235.124,328.637,238.133,324.957,238.133z"/>
	<path fill="#91C23E" d="M338.406,181.587c0,0,20.668,24.249,7.265,37.205c-13.403,12.957-39.795,3.06-43.919,6.359
		c-4.123,3.299-14.859,41.611-36.295,25.342c-21.436-16.271-25.723-30.291-39.249-25.342c-13.526,4.948-14.264,34.562-31.214,27.59
		c-16.951-6.972-10.354-16.044-23.137-21.817c-12.783-5.772-17.802,25.464-28.488,25.928s-19.274-18.505-30.238-19.33
		c-10.963-0.824-31.358,40.412-43.841,23.093s-5.06-30.206-17.431-34.071c-12.371-3.866-24.742,17.576-39.587,9.329
		c-14.846-8.247-14.021-27.744-7.423-32.429c6.598-4.684,15.884-25.147,15.884-25.147L338.406,181.587z"/>
	<g>
		<ellipse fill="#F15C49" cx="262.57" cy="181.587" rx="75.836" ry="37.533"/>
		<ellipse fill="#F15C49" cx="262.57" cy="181.587" rx="56.781" ry="24.573"/>
		<path fill="#F7A197" d="M262.569,149.897c-38.15,0-69.077,14.188-69.077,31.69s30.927,31.69,69.077,31.69
			s69.078-14.188,69.078-31.69S300.72,149.897,262.569,149.897z M259.683,206.128c-5.651-0.122-11.081-0.605-16.179-1.393
			l14.259-14.259c0.604,0.328,1.248,0.592,1.92,0.791V206.128z M258.13,172.52l-14.151-14.151
			c4.961-0.743,10.227-1.204,15.704-1.322v14.859C259.144,172.066,258.627,172.276,258.13,172.52z M265.457,157.046
			c5.651,0.122,11.08,0.605,16.178,1.393l-14.258,14.258c-0.605-0.327-1.249-0.591-1.92-0.791V157.046z M267.01,190.655
			l14.151,14.151c-4.961,0.743-10.228,1.204-15.704,1.322v-14.86C265.996,191.108,266.512,190.899,267.01,190.655z M286.43,159.29
			c17.513,3.516,30.182,10.777,32.518,19.411h-46.696c-0.2-0.672-0.464-1.315-0.791-1.921l16.23-16.23L286.43,159.29z
			 M236.185,159.83l17.317,17.318c-0.244,0.497-0.453,1.014-0.613,1.553h-46.696C208.414,170.488,219.986,163.516,236.185,159.83z
			 M206.192,184.474h46.696c0.199,0.672,0.463,1.315,0.791,1.92l-17.05,17.05C220.199,199.785,208.435,192.761,206.192,184.474z
			 M262.548,206.16h0.043c-0.007,0-0.014,0.001-0.021,0.001C262.562,206.161,262.556,206.16,262.548,206.16z M288.955,203.345
			l-17.318-17.318c0.244-0.497,0.453-1.014,0.614-1.553h46.696C316.725,192.687,305.153,199.659,288.955,203.345z"/>
		
			<ellipse transform="matrix(0.9392 -0.3434 0.3434 0.9392 -51.0841 89.9817)" fill="#FFFFFF" cx="228.485" cy="189.207" rx="3.128" ry="0.561"/>
		
			<ellipse transform="matrix(0.9392 -0.3433 0.3433 0.9392 -51.0428 92.0172)" fill="#FFFFFF" cx="234.363" cy="190.169" rx="3.128" ry="0.561"/>
		
			<ellipse transform="matrix(0.9392 -0.3434 0.3434 0.9392 -52.3698 91.8207)" fill="#FFFFFF" cx="233.034" cy="193.755" rx="3.128" ry="0.561"/>
		
			<ellipse transform="matrix(-0.9392 -0.3434 0.3434 -0.9392 507.0619 468.2189)" fill="#FFFFFF" cx="294.994" cy="189.207" rx="3.128" ry="0.562"/>
		
			<ellipse transform="matrix(-0.9392 -0.3433 0.3433 -0.9392 495.3719 468.0359)" fill="#FFFFFF" cx="289.115" cy="190.169" rx="3.128" ry="0.561"/>
		
			<ellipse transform="matrix(-0.9392 -0.3434 0.3434 -0.9392 496.6928 475.4664)" fill="#FFFFFF" cx="290.445" cy="193.755" rx="3.128" ry="0.562"/>
		
			<ellipse transform="matrix(0.2938 -0.9559 0.9559 0.2938 -12.8374 383.2491)" fill="#FFFFFF" cx="252.952" cy="200.312" rx="3.128" ry="0.562"/>
		
			<ellipse transform="matrix(0.2938 -0.9559 0.9559 0.2938 -10.631 386.8801)" fill="#FFFFFF" cx="256.513" cy="200.635" rx="3.128" ry="0.561"/>
		
			<ellipse transform="matrix(-0.2938 -0.9559 0.9559 -0.2938 160.3268 519.0752)" fill="#FFFFFF" cx="271.911" cy="200.312" rx="3.128" ry="0.562"/>
		
			<ellipse transform="matrix(-0.2938 -0.9559 0.9559 -0.2938 155.4121 516.0887)" fill="#FFFFFF" cx="268.351" cy="200.635" rx="3.128" ry="0.562"/>
	</g>
	<g>
		<ellipse fill="#F15C49" cx="113.104" cy="178.296" rx="97.483" ry="48.247"/>
		<ellipse fill="#F15C49" cx="113.104" cy="178.296" rx="72.989" ry="31.587"/>
		<path fill="#F7A197" d="M113.104,137.561c-49.04,0-88.796,18.238-88.796,40.736s39.756,40.736,88.796,40.736
			s88.796-18.238,88.796-40.736S162.144,137.561,113.104,137.561z M109.393,209.843c-7.265-0.157-14.244-0.779-20.797-1.79
			l18.328-18.329c0.778,0.421,1.605,0.76,2.469,1.017V209.843z M107.396,166.64l-18.189-18.19
			c6.375-0.956,13.145-1.548,20.186-1.701v19.102C108.699,166.057,108.036,166.327,107.396,166.64z M116.815,146.75
			c7.264,0.158,14.244,0.779,20.796,1.79l-18.328,18.328c-0.778-0.421-1.604-0.76-2.468-1.017V146.75z M118.812,189.952l18.19,18.19
			c-6.377,0.957-13.146,1.548-20.187,1.701v-19.103C117.508,190.535,118.172,190.265,118.812,189.952z M143.775,149.633
			c22.511,4.52,38.796,13.854,41.799,24.952h-60.025c-0.257-0.863-0.596-1.691-1.017-2.469l20.862-20.863L143.775,149.633z
			 M79.188,150.328l22.261,22.262c-0.313,0.639-0.583,1.303-0.79,1.996H40.633C43.49,164.029,58.365,155.067,79.188,150.328z
			 M40.633,182.007h60.026c0.257,0.863,0.595,1.69,1.017,2.468L79.76,206.392C58.639,201.687,43.516,192.66,40.633,182.007z
			 M113.076,209.883h0.055c-0.009,0-0.018,0-0.027,0S113.086,209.883,113.076,209.883z M147.021,206.265l-22.263-22.262
			c0.314-0.64,0.584-1.303,0.789-1.996h60.026C182.717,192.564,167.843,201.526,147.021,206.265z"/>
		
			<ellipse transform="matrix(0.9392 -0.3433 0.3433 0.9392 -60.3622 35.22)" fill="#FFFFFF" cx="69.29" cy="188.09" rx="4.021" ry="0.722"/>
		
			<ellipse transform="matrix(0.9392 -0.3433 0.3433 0.9392 -60.3277 37.8895)" fill="#FFFFFF" cx="76.847" cy="189.327" rx="4.021" ry="0.721"/>
		
			<ellipse transform="matrix(0.9392 -0.3433 0.3433 0.9392 -62.0144 37.583)" fill="#FFFFFF" cx="75.138" cy="193.938" rx="4.021" ry="0.722"/>
		
			<ellipse transform="matrix(-0.9392 -0.3434 0.3434 -0.9392 235.5767 417.8904)" fill="#FFFFFF" cx="154.784" cy="188.09" rx="4.02" ry="0.722"/>
		
			<ellipse transform="matrix(-0.9392 -0.3434 0.3434 -0.9392 220.498 417.6952)" fill="#FFFFFF" cx="147.227" cy="189.327" rx="4.02" ry="0.721"/>
		
			<ellipse transform="matrix(-0.9392 -0.3434 0.3434 -0.9392 222.229 427.2224)" fill="#FFFFFF" cx="148.936" cy="193.938" rx="4.02" ry="0.722"/>
		
			<ellipse transform="matrix(0.2937 -0.9559 0.9559 0.2937 -122.2872 239.2398)" fill="#FFFFFF" cx="100.741" cy="202.367" rx="4.021" ry="0.722"/>
		
			<ellipse transform="matrix(0.2938 -0.9559 0.9559 0.2938 -119.4542 243.8803)" fill="#FFFFFF" cx="105.318" cy="202.78" rx="4.021" ry="0.722"/>
		
			<ellipse transform="matrix(-0.2937 -0.9559 0.9559 -0.2937 -31.5934 381.3893)" fill="#FFFFFF" cx="125.111" cy="202.367" rx="4.021" ry="0.721"/>
		
			<ellipse transform="matrix(-0.2937 -0.9559 0.9559 -0.2937 -37.9083 377.5493)" fill="#FFFFFF" cx="120.535" cy="202.78" rx="4.021" ry="0.722"/>
	</g>
	<path fill="#683524" d="M319.916,179.53H23.799c-8.153,0-14.825-6.672-14.825-14.826v-16.547c0-8.154,6.672-14.826,14.825-14.826
		h296.117c8.154,0,14.825,6.672,14.825,14.826v16.547C334.741,172.858,328.07,179.53,319.916,179.53z"/>
	<polygon fill="#FCF388" points="8.974,125.359 -0.001,143.297 125.261,164.946 340.099,144.848 318.567,111.269 15.777,117.333 	
		"/>
	<polygon fill="#E5DE98" points="110.629,122.77 259.683,168.995 330.652,124.289 308.953,111.524 	"/>
	<polygon fill="#FCF388" points="116.815,122.243 259.683,168.995 326.532,123.691 305.85,111.524 	"/>
	<path fill="#91C23E" d="M12.065,107.421c0,0-18.557,13.093-6.186,22.628c12.371,9.536,1.238,24.382,17.938,21.907
		c16.701-2.474,18.557-19.793,29.072-17.319c10.515,2.474,9.896,13.946,18.556,14.396c8.659,0.45,14.227-16.87,21.649-16.251
		c7.422,0.618,10.326,14.227,20.008,14.227c9.683,0,12.157-15.979,23.291-16.959c11.133-0.979,14.845,13.866,26.597,12.629
		c11.753-1.237,13.39-15.189,23.396-12.853c10.007,2.337,16.191,11.616,23.614,10.997s15.464-11.031,25.36-10.773
		c9.896,0.258,15.464,13.866,23.505,13.866s11.753-13.505,22.268-13.866c10.516-0.36,17.267,11.392,24.716,12.01
		c7.449,0.619,15.49-12.268,20.438-12.01c4.948,0.258,22.268,11.047,22.268-0.224c0-11.271-21.649-26.734-21.649-26.734
		L12.065,107.421z"/>
	<path fill="#F5A11E" d="M334.741,105.257L334.741,105.257C334.741,47.366,287.376,0,229.484,0H114.23
		C56.339,0,8.974,47.366,8.974,105.257l0,0c0,8.939,7.246,16.186,16.186,16.186h293.396
		C327.495,121.443,334.741,114.196,334.741,105.257z"/>
	<g>
		<path fill="#F9C88F" d="M131.671,30.737c0,3.352-1.594,3.914-3.561,3.914s-3.562-0.562-3.562-3.914
			c0-3.353,3.562-8.944,3.562-8.944S131.671,27.385,131.671,30.737z"/>
		<path fill="#F9C88F" d="M185.603,61.756c0,3.352-1.595,3.914-3.562,3.914s-3.561-0.562-3.561-3.914
			c0-3.353,3.561-8.944,3.561-8.944S185.603,58.403,185.603,61.756z"/>
		<path fill="#F9C88F" d="M67.597,57.245c0,3.353-1.595,3.914-3.562,3.914s-3.561-0.562-3.561-3.914
			c0-3.352,3.561-8.944,3.561-8.944S67.597,53.893,67.597,57.245z"/>
		<path fill="#F9C88F" d="M173.886,30.737c0,3.352-1.594,3.914-3.561,3.914s-3.562-0.562-3.562-3.914
			c0-3.353,3.562-8.944,3.562-8.944S173.886,27.385,173.886,30.737z"/>
		<path fill="#F9C88F" d="M151.778,11.008c0,3.352-1.595,3.914-3.562,3.914s-3.561-0.562-3.561-3.914
			c0-3.353,3.561-8.944,3.561-8.944S151.778,7.655,151.778,11.008z"/>
		<path fill="#F9C88F" d="M128.695,61.756c0,3.352-1.595,3.914-3.562,3.914s-3.561-0.562-3.561-3.914
			c0-3.353,3.561-8.944,3.561-8.944S128.695,58.403,128.695,61.756z"/>
		<path fill="#F9C88F" d="M247.494,18.866c0,3.353-1.594,3.914-3.561,3.914s-3.562-0.562-3.562-3.914s3.562-8.944,3.562-8.944
			S247.494,15.513,247.494,18.866z"/>
		<path fill="#F9C88F" d="M286.916,58.287c0,3.353-1.595,3.914-3.562,3.914s-3.561-0.562-3.561-3.914s3.561-8.944,3.561-8.944
			S286.916,54.935,286.916,58.287z"/>
		<path fill="#F9C88F" d="M282.823,29.223c0,3.353-1.595,3.914-3.561,3.914c-1.967,0-3.562-0.562-3.562-3.914
			s3.562-8.944,3.562-8.944S282.823,25.871,282.823,29.223z"/>
		<path fill="#F9C88F" d="M206.769,18.866c0,3.353-1.595,3.914-3.562,3.914s-3.561-0.562-3.561-3.914s3.561-8.944,3.561-8.944
			S206.769,15.513,206.769,18.866z"/>
		<path fill="#F9C88F" d="M89.456,25.295c0,3.353-1.595,3.914-3.562,3.914s-3.561-0.562-3.561-3.914s3.561-8.944,3.561-8.944
			S89.456,21.942,89.456,25.295z"/>
		<path fill="#F9C88F" d="M243.094,49.321c0,3.353-1.594,3.914-3.561,3.914s-3.562-0.562-3.562-3.914
			c0-3.352,3.562-8.944,3.562-8.944S243.094,45.969,243.094,49.321z"/>
	</g>
	<path fill="#EE8E22" d="M23.134,52.75c-8.982,15.481-14.16,33.413-14.16,52.506l0,0c0,8.939,7.246,16.186,16.186,16.186h293.396
		c6.78,0,12.579-4.174,14.988-10.088C162.456,110.673,71.488,82.66,23.134,52.75z"/>
</g>
</svg>
