<?xml version="1.0" encoding="utf-8"?>
<!-- Generator: Adobe Illustrator 16.0.0, SVG Export Plug-In . SVG Version: 6.00 Build 0)  -->
<!DOCTYPE svg PUBLIC "-//W3C//DTD SVG 1.1//EN" "http://www.w3.org/Graphics/SVG/1.1/DTD/svg11.dtd">
<svg version="1.1" id="Layer_1" xmlns="http://www.w3.org/2000/svg" xmlns:xlink="http://www.w3.org/1999/xlink" x="0px" y="0px"
	 width="1065.711px" height="1283.847px" viewBox="0 0 1065.711 1283.847" enable-background="new 0 0 1065.711 1283.847"
	 xml:space="preserve">
<g id="_x30_1">
	<path fill="#FFE3C2" d="M906.783,1093.808c73.146-122.651,181.863-748.627,154.653-884.625
		C1034.226,73.185,393.087-16.648,211.671,2.59C30.255,21.828,13.184,88.029,0.496,154.488
		c-12.688,66.458,221.424,841.601,303.751,945.653C340.969,1146.554,833.636,1216.458,906.783,1093.808z"/>
	<path fill="#D9D9D8" d="M859.165,981.035c176.614,37.847,201.636,222.954-8.411,269.128
		c-487.793,107.23-859.246-60.068-681.229-241.794C270.448,905.344,859.165,981.035,859.165,981.035z"/>
	<path fill="#E6CCA9" d="M334.634,731.961h-67.272c-22.568,0.623-29.576-57.775-2.011-61.513l69.283,0.547
		c13.352,0,24.175,10.823,24.175,24.175v12.614C357.854,726.043,347.986,731.961,334.634,731.961z"/>
	<path fill="#E6CCA9" d="M292.589,797.13h-67.272c-21.157,0.585-28.639-50.706-6.779-60.198c2.193-0.953,4.598-1.315,6.989-1.297
		l73.929,0.92c13.352,0,17.309,10.434,17.309,23.786l-0.257,5.647C311.579,785.418,305.941,797.13,292.589,797.13z"/>
	<path fill="#E6CCA9" d="M971.614,494.407h-67.271c-21.157,0.585-28.639-50.706-6.779-60.199c2.193-0.952,4.598-1.315,6.988-1.295
		l73.929,0.92c13.352,0,17.31,10.433,17.31,23.785l-0.257,5.647C990.604,482.695,984.965,494.407,971.614,494.407z"/>
	<path fill="#E6CCA9" d="M651.712,152.108H584.44c-21.157,0.585-28.639-50.706-6.779-60.199c2.193-0.953,4.598-1.315,6.989-1.296
		l73.929,0.92c13.352,0,17.309,10.434,17.309,23.786l-0.257,5.647C670.702,140.397,665.064,152.108,651.712,152.108z"/>
	<path fill="#E6CCA9" d="M870.477,406.965h-67.271c-21.157,0.584-28.639-50.706-6.779-60.199c2.193-0.953,4.598-1.315,6.989-1.296
		l73.928,0.92c13.353,0,17.31,10.434,17.31,23.786l-0.257,5.647C889.467,395.254,883.83,406.965,870.477,406.965z"/>
	<g>
		<rect x="301.592" y="117.063" fill="#C8E9EA" width="275.549" height="446.765"/>
		<path fill="#FFFFFF" fill-opacity="0.6" d="M562.425,220.778C468.228,302.947,401.386,353,312.537,441.059l-7.942,47.653
			l0.308,28.867c85.851-83.531,169.586-169.047,257.523-249.708V220.778z"/>
		<path fill="#FFFFFF" fill-opacity="0.6" d="M577.141,109.345l-40.653,3.109c-65.873,62.37-156.626,142.949-234.896,212.281v43.162
			c94.225-76.038,186.627-153.767,275.549-239.809V109.345z"/>
		<path fill="#B17F4A" d="M290.133,124.792c-0.467,41.363,3.854,222.154,4.789,296.05c0.654,51.659-1.285,155.229,5.723,154.299
			c5.424-0.72,20.599,1.736,21.024-4.183c1.752-24.4,1.051-68.227,1.051-119.907c0-68.32-0.701-331.488-8.409-333.58
			C306.601,115.38,290.285,111.329,290.133,124.792z"/>
		<path fill="#B17F4A" d="M296.635,142.231c25.764,0.527,138.372-4.349,184.399-5.403c32.177-0.737,96.687,1.45,96.107-6.458
			c-0.448-6.12,1.081-23.242-2.605-23.722c-15.197-1.977-42.495-1.186-74.686-1.186c-42.554,0-206.472,0.791-207.774,9.489
			S288.249,142.06,296.635,142.231z"/>
		<path fill="#B17F4A" d="M302.293,363.219c25.545,0.427,137.194-3.524,182.83-4.379c31.903-0.597,95.864,1.175,95.29-5.233
			c-0.444-4.96,1.072-18.836-2.583-19.225c-15.068-1.602-42.135-0.961-74.051-0.961c-42.191,0-204.715,0.641-206.007,7.689
			C296.481,348.16,293.979,363.08,302.293,363.219z"/>
		<path fill="#B17F4A" d="M301.584,576.016c25.953,0.527,139.388-4.349,185.753-5.403c32.413-0.737,97.396,1.45,96.813-6.458
			c-0.451-6.121,1.09-23.242-2.624-23.722c-15.31-1.977-42.809-1.186-75.234-1.186c-42.866,0-207.989,0.791-209.301,9.489
			C295.679,557.434,293.137,575.845,301.584,576.016z"/>
		<path fill="#B17F4A" d="M551.511,129.607c-0.467,40.306,1.886,209.902,2.82,281.911c0.653,50.339-2.803,158.52,4.205,157.614
			c5.424-0.701,24.085,1.009,24.51-4.759c1.752-23.776,1.052-66.483,1.052-116.843c0-66.574,4.222-338.511-3.487-340.548
			C572.902,104.942,551.664,116.488,551.511,129.607z"/>
		<path fill="#FFFFFF" d="M305.931,351.071c1.402,9.811,5.606,19.622,5.606,19.622s-10.812,32.423-12.964,62.37
			c-4.088,56.868-0.206,129.295,4.905,125.791c12.264-8.409,17.169-4.555,27.681,0.351c10.512,4.905,16.118-12.264,25.929-12.264
			s20.323,14.016,29.433,12.614c9.11-1.401,17.915-16.162,24.527-13.782c11.68,4.205,11.796,12.497,20.556,14.249
			c21.024,4.205,20.556-20.323,35.973-7.708c15.418,12.614,17.435-10.278,28.498-10.278c11.914,0,13.315,10.746,20.323,12.147
			s16.469-13.198,28.031-10.745c15.329,3.251,16.586,16.118,20.089,9.11c3.504-7.008-6.307-184.306-6.307-184.306
			s6.307-13.315,2.804-16.819C557.512,347.917,305.931,351.071,305.931,351.071z"/>
		<g>
			<defs>
				<path id="SVGID_1_" d="M305.776,351.162c1.401,9.811,5.606,19.622,5.606,19.622s-10.812,32.423-12.964,62.37
					c-4.087,56.868-0.206,129.295,4.906,125.791c12.264-8.41,17.169-4.555,27.681,0.35c10.512,4.906,16.118-12.264,25.929-12.264
					c9.811,0,20.322,14.016,29.433,12.614s17.916-16.162,24.527-13.782c11.68,4.205,11.797,12.498,20.556,14.25
					c21.023,4.205,20.557-20.323,35.974-7.708c15.417,12.614,17.435-10.278,28.499-10.278c11.913,0,13.314,10.745,20.322,12.147
					c7.008,1.401,16.469-13.198,28.031-10.746c15.329,3.252,16.585,16.118,20.089,9.11s-6.307-184.306-6.307-184.306
					s6.307-13.315,2.803-16.819S305.776,351.162,305.776,351.162z"/>
			</defs>
			<clipPath id="SVGID_2_">
				<use xlink:href="#SVGID_1_"  overflow="visible"/>
			</clipPath>
			<g clip-path="url(#SVGID_2_)">
				<g>
					<path opacity="0.76" fill="#F59493" d="M287.287,645.445c-7.8-0.795-11.835-1.795-19.796-3.312
						c0.041-114.755,0.786-229.509,0.831-344.264c7.622,0,11.434,0,19.056,0C287.406,413.729,287.258,529.587,287.287,645.445z"/>
					<path opacity="0.76" fill="#F59493" d="M337.602,646.527c-7.578-0.043-11.287-0.142-18.735-0.311
						c0-115.166,0-230.332,0-345.498c7.448,1.283,11.157,2.039,18.735,2.365C337.602,417.565,337.598,532.046,337.602,646.527z"/>
					<path opacity="0.76" fill="#F59493" d="M385.021,636.034c-7.667-0.18-11.068,1.094-17.878,3.527
						c0.166-113.311,2.639-226.603,2.801-339.914c7.788-1.223,11.695-1.847,19.294-1.773
						C389.055,410.609,385.205,523.298,385.021,636.034z"/>
					<path opacity="0.76" fill="#F59493" d="M438.773,646.814c-7.684,1.307-11.496,0.252-19.696-2.061
						c-0.065-114.44,1.001-228.877,0.936-343.317c7.33,0.945,11.033,1.291,18.781,0.884
						C438.818,417.151,438.756,531.983,438.773,646.814z"/>
					<path opacity="0.76" fill="#F59493" d="M490.449,633.734c-7.728-1.965-11.469-1.852-19.207,0.605
						c0.05-111.968,0.589-223.935,0.632-335.903c7.859-0.765,11.688-0.904,19.101-0.021
						C490.893,410.188,490.523,521.96,490.449,633.734z"/>
					<path opacity="0.76" fill="#F59493" d="M541.781,644.45c-7.348,1.484-11.129,2.243-18.833,0.729
						c-0.11-113.875-1.213-227.747-1.318-341.623c7.46,0.68,11.346,0.37,19.242-0.781
						C540.985,416.667,541.667,530.558,541.781,644.45z"/>
					<path opacity="0.76" fill="#F59493" d="M591.957,640.36c-7.94-1.722-11.903-2.535-19.459-2.177
						c0.089-113.425,1.316-226.845,1.405-340.27c7.688-0.278,11.443-0.043,19.065-0.043
						C592.895,412.034,592.014,526.196,591.957,640.36z"/>
					<path opacity="0.76" fill="#F59493" d="M623.225,618.863c0,7.622,0,11.433,0,19.054c-22.016-2.48-42.417-10.191-64.652-5.469
						c-16.046,3.408-28.518,7.55-44.751,2.146c-15.209-5.063-26.694-12.529-43.191-7.939c-14.947,4.159-25.62,13.046-41.864,12.283
						c-15.162-0.713-28.615-10.978-44.051-10.815c-14.075,0.147-26.053,8.2-39.756,10.248c-32.465,4.851-66.703-3.793-98.776-6.753
						c0.004-7.604,0.007-11.395,0.021-18.957c32.041,2.961,66.334,11.491,98.747,6.716c13.705-2.019,25.766-10.011,39.832-10.152
						c15.385-0.155,28.855,9.989,43.975,10.694c16.163,0.753,26.978-7.996,41.885-12.093c16.464-4.526,27.942,2.802,43.16,7.815
						c16.243,5.351,28.728,1.258,44.787-2.127C580.765,608.837,601.253,616.382,623.225,618.863z"/>
					<path opacity="0.76" fill="#F59493" d="M623.225,567.931c0,7.622,0,11.433,0,19.055c-21.895-2.364-42.537-9.478-64.594-4.923
						c-16.062,3.316-28.642,7.323-44.888,2.141c-15.202-4.849-26.702-11.831-43.063-7.522
						c-14.833,3.906-25.948,12.282-41.927,11.541c-15-0.696-28.474-10.425-43.721-10.296c-14.086,0.119-26.333,7.916-40.086,9.837
						c-32.286,4.509-66.686-3.782-98.659-6.609c0.026-7.505,0.041-11.25,0.073-18.728c31.933,2.677,66.393,10.809,98.59,6.525
						c13.807-1.837,26.185-9.47,40.301-9.569c15.141-0.107,28.601,9.268,43.509,9.962c15.851,0.738,27.168-7.348,41.953-11.096
						c16.274-4.126,27.812,2.598,42.984,7.306c16.237,5.039,28.917,1.09,44.966-2.171
						C580.639,558.917,601.378,565.691,623.225,567.931z"/>
					<path opacity="0.76" fill="#F59493" d="M623.225,517c0,7.622,0,11.433,0,19.055c-21.766-1.954-42.671-8.063-64.502-3.772
						c-16.021,3.148-28.902,6.993-45.12,2.245c-15.578-4.561-26.325-9.766-42.824-6.885c-14.916,2.604-26.196,10.94-41.998,10.199
						c-14.724-0.69-28.143-9.348-43.075-9.28c-14.192,0.064-26.817,7.362-40.74,9.026c-32.046,3.832-66.576-4.015-98.454-6.357
						c0.04-7.443,0.061-11.16,0.104-18.588c31.863,2.105,66.394,9.774,98.36,6.245c14.006-1.546,26.79-8.613,41.04-8.657
						c14.792-0.045,28.179,8.131,42.78,8.818c15.633,0.736,27.191-7.16,42.029-9.599c16.327-2.684,27.248,2.267,42.716,6.611
						c16.202,4.55,29.225,0.772,45.223-2.304C580.505,509.577,601.512,515.248,623.225,517z"/>
					<path opacity="0.76" fill="#F59493" d="M623.225,466.067c0,7.622-0.001,11.434-0.001,19.055
						c-21.626-1.382-42.795-6.272-64.387-2.286c-15.958,2.946-29.233,6.603-45.406,2.412c-15.267-3.957-26.511-8.463-42.527-6.125
						c-14.702,2.146-26.728,9.248-42.075,8.523c-14.381-0.679-27.706-8.002-42.252-7.989c-14.358,0.013-27.417,6.662-41.573,7.995
						c-31.872,3.001-66.319-4.379-98.198-6.046c0.046-7.416,0.069-11.123,0.115-18.537c31.916,1.394,66.256,8.61,98.098,5.925
						c14.249-1.202,27.475-7.591,41.903-7.588c14.395,0.002,27.679,6.807,41.926,7.478c15.187,0.716,27.479-5.895,42.105-7.863
						c16.131-2.17,26.976,2.993,42.409,5.83c16.561,3.044,29.151,0.467,45.52-2.479
						C580.387,460.499,601.653,464.915,623.225,466.067z"/>
					<path opacity="0.76" fill="#F59493" d="M623.225,415.136c0,7.622,0,11.433,0,19.055c-21.488-0.776-42.895-4.417-64.271-0.729
						c-16.279,2.808-29.227,5.334-45.705,2.59c-15.15-2.523-26.471-7.162-42.214-5.341c-14.511,1.678-27.212,7.474-42.154,6.778
						c-14.027-0.653-27.243-6.619-41.393-6.638c-14.554-0.02-28.033,6.016-42.445,6.917c-31.928,1.997-65.84-4.779-97.933-5.725
						c0.044-7.424,0.066-11.138,0.107-18.574c32.147,0.695,65.919,7.394,97.839,5.609c14.491-0.81,28.134-6.562,42.751-6.538
						c14.012,0.023,27.189,5.523,41.091,6.162c14.813,0.681,27.73-4.646,42.179-6.161c15.527-1.627,27.113,2.711,42.106,5.06
						c16.436,2.575,29.574,0.084,45.809-2.649C580.303,411.365,601.784,414.567,623.225,415.136z"/>
					<path opacity="0.76" fill="#F59493" d="M623.225,364.203c0,7.622,0,11.433,0,19.055c-21.37-0.27-42.953-2.81-64.165,0.629
						c-16.176,2.622-29.593,5.051-45.971,2.733c-14.764-2.089-26.73-5.97-41.94-4.627c-14.365,1.268-27.589,5.882-42.227,5.229
						c-13.715-0.611-26.833-5.426-40.637-5.451c-14.712-0.027-28.601,5.291-43.209,5.969c-31.94,1.483-65.437-5.107-97.696-5.436
						c0.034-7.468,0.051-11.208,0.08-18.701c17.149,0.084,34.588-0.267,51.708,0.764c15.396,0.927,30.396,5.237,45.915,4.583
						c14.667-0.619,28.681-5.71,43.44-5.686c13.7,0.023,26.789,4.5,40.409,5.093c14.556,0.634,27.927-3.612,42.254-4.754
						c15.053-1.2,27.203,2.44,41.854,4.4c16.352,2.187,29.904-0.201,46.054-2.767C580.26,361.873,601.89,364.072,623.225,364.203z"
						/>
					<path opacity="0.76" fill="#F59493" d="M623.225,313.271c0,7.622,0,11.433,0,19.055c-21.284,0.009-42.982-1.742-64.087,1.524
						c-16.13,2.497-29.836,4.812-46.163,2.79c-14.521-1.798-26.888-5.102-41.748-4.083c-14.281,0.979-27.839,4.746-42.296,4.142
						c-13.498-0.563-26.557-4.627-40.123-4.645c-14.812-0.02-28.996,4.68-43.728,5.329c-15.557,0.685-30.496-3.921-45.915-4.893
						c-17.068-1.075-34.513-0.343-51.612-0.338c0.017-7.548,0.022-11.329,0.03-18.916c17.086-0.019,34.527-0.903,51.582,0.191
						c15.435,0.991,30.327,5.669,45.907,4.991c14.752-0.642,29-5.22,43.828-5.204c13.516,0.015,26.571,3.941,40.024,4.487
						c14.418,0.585,28.055-2.993,42.318-3.908c14.791-0.948,27.229,2.205,41.707,3.944c16.324,1.96,30.077-0.311,46.208-2.782
						C580.232,311.729,601.967,313.299,623.225,313.271z"/>
				</g>
			</g>
		</g>
		<g>
			<path opacity="0.35" fill="#282830" d="M339.393,476.512c0.175-12.965-4.205-11.388-5.256-2.103
				c-3.907,26.046-2.456,58.048-6.802,82.97c1.2,0.576,2.463,1.19,3.823,1.825c5.574,2.601,9.768-1.004,13.941-4.965
				C338.342,527.669,339.218,489.476,339.393,476.512z"/>
		</g>
		<g>
			<path opacity="0.35" fill="#282830" d="M384.944,447.429c-5.781-0.876-5.431,16.118-5.431,20.323
				c-1.284,29.528,3.304,59.057-3.456,88.586c3.606,2.174,7.129,3.729,10.464,3.216c3.299-0.507,6.559-2.77,9.689-5.333
				C379.996,523.589,392.228,448.532,384.944,447.429z"/>
		</g>
		<g>
			<path opacity="0.35" fill="#282830" d="M424.162,555.674c1.968,2.015,4.061,3.67,7.443,4.347
				c8.363,1.672,13.321-1.203,17.235-4.477c-9.41-9.831-8.184-81.836-15.016-80.26C426.991,476.862,431.371,541.509,424.162,555.674
				z"/>
		</g>
		<g>
			<path opacity="0.35" fill="#282830" d="M479.024,449.531c0,0-0.175-10.336-4.905-5.081c-2.277,46.077-1.737,73.886-4.332,109.474
				c5.465,3.56,9.104,2.269,12.194-0.54C474.514,519.587,482.719,484.018,479.024,449.531z"/>
		</g>
		<g>
			<path opacity="0.35" fill="#282830" d="M517.567,451.984c-6.307-0.526-5.746,71.613-8.119,97.092
				c2.116,2.351,4.058,4.527,6.951,5.105c1.8,0.36,3.762-0.339,5.88-1.53C521.933,551.453,523.539,452.482,517.567,451.984z"/>
		</g>
		<g>
			<path opacity="0.35" fill="#282830" d="M549.102,357.028c-2.686,0.117-4.205,6.774-5.605,8.176c-1.402,0-5.84-3.854-9.578-2.335
				c-2.419,0.982-4.438,5.139-7.241,3.737c-11.68-10.278-8.409,0.467-23.826,0.467c-5.607,0-12.614-8.643-18.221-7.242
				c-4.205,2.803-7.008,12.614-12.614,9.811c-4.204-2.803-8.409-14.016-15.417-8.409c-0.701,9.694-5.139,10.628-8.41,9.811
				c-7.357-8.059-7.357-2.336-19.972-0.935c-5.606,0-8.993-5.84-16.001-8.643c-5.606-1.401-8.06,3.971-12.264,6.774
				c-4.205,1.401-18.688-3.621-21.491-6.424c-4.205-1.402-5.957,3.621-10.161,5.022c-8.409,4.205-15.417-1.401-22.425-8.409
				c-7.008-5.606-9.811,11.212-16.819,5.606c-1.402-1.401-4.205-2.803-5.606-2.803c-4.019,5.358-8.041,8.143-13.283,5.932
				c0.794,2.183,1.37,3.528,1.37,3.528s-0.205,0.616-0.555,1.724c3.78,1.816,3.909,9.063,8.264,11.24
				c7.007,2.803,5.606-8.409,11.212-9.811c5.84-1.051,7.008,8.643,12.38,7.475c3.222-0.7,7.242-4.672,10.045-7.475
				c8.409-4.205,6.073,13.198,10.862,12.614s4.555-8.409,7.358-11.212c8.409,7.008,1.985,20.556,8.409,23.827
				c7.592-2.569-1.401-16.819,8.41-22.425c8.409-4.205,9.811,8.41,18.22,7.008c2.803-1.401,5.606-4.205,7.008-5.606
				c11.212-7.008,17.169,8.759,26.98,4.555c1.402,0,8.059-5.869,11.738-4.379c3.68,1.489,1.489,9.635,5.694,9.635
				c3.241-1.139,5.198-4.656,7.796-7.008c4.643-4.205,5.256,7.008,13.665,2.803c1.401,0,7.896-7.474,12.38-4.438
				c14.104,9.548,7.242-3.416,23.36-2.803c1.401,0,6.773,6.307,11.68,5.139c10.336-2.461,6.891-7.125,12.381-0.467
				c10.336,1.292,20.322-0.701,19.519-10.465c-0.084-1.535-0.131-2.382-0.131-2.382s0.287-0.612,0.695-1.575
				C553.688,365.403,551.789,356.911,549.102,357.028z"/>
		</g>
		<path fill="#282830" fill-opacity="0.36" d="M273.221,581.218c-6.216,3.658,6.222,30.431,6.222,30.431l368.735-8.876l1.136-30.834
			"/>
		<path fill="#936037" d="M267.615,572.808c-6.216,3.658,6.222,30.431,6.222,30.431l368.735-8.876l1.136-30.835"/>
	</g>
	<g>
		<path fill="#8A5631" d="M590.221,851.206c-1.876,13.669,7.691,222.641,7.691,222.641s-2.837,9.641-9.849,8.95
			c-4.859-0.479-15.993-0.292-16.305-1.787c-1.239-5.954-8.658-227.418-8.658-227.418"/>
		<path fill="#936037" d="M581.44,856.354c-1.876,13.67,6.624,226.443,6.624,226.443s-24.003,0.218-24.763-3.434
			c-1.24-5.955-8.981-220.625-8.981-220.625"/>
	</g>
	<g>
		<path fill="#8A5631" d="M765.917,854.01c-1.876,13.67,7.691,222.642,7.691,222.642s-2.836,9.641-9.849,8.95
			c-4.859-0.479-15.993-0.293-16.304-1.787c-1.24-5.955-8.658-227.42-8.658-227.42"/>
		<path fill="#936037" d="M757.136,859.158c-1.876,13.668,6.624,226.443,6.624,226.443s-24.002,0.218-24.763-3.435
			c-1.24-5.954-8.981-220.624-8.981-220.624"/>
	</g>
	<polygon fill="#936037" points="839.526,723.24 821.305,891.428 793.274,888.625 814.297,707.823 	"/>
	<path fill="#936037" d="M657.379,714.43c15.905-8.662,222.813,10.99,231.077,0.261s18.834-81.495,13.62-85.388
		c-5.215-3.893-241.241-6.743-241.241-6.743L657.379,714.43z"/>
	<path fill="#8A5631" d="M400.244,833.265c6.244,16.957,59.314,302.72,59.314,302.72s10.117-3.878,15.921-8.093
		c2.653-1.927-37.149-290.772-37.149-290.772L400.244,833.265z"/>
	<path fill="#936037" d="M384.011,833.265c6.243,16.957,48.543,299.637,48.543,299.637s28.252,7.322,28.408,2.505
		c0.255-7.854-38.866-298.287-38.866-298.287L384.011,833.265z"/>
	<path fill="#8A5631" d="M835.082,848.68c-3.435,17.9-0.117,289.425-0.117,289.425s-4.631,12.71-14.833,12.204
		c-7.068-0.352-23.331,0.515-23.71-1.414c-1.506-7.682-1.051-295.59-1.051-295.59"/>
	<path fill="#936037" d="M822,855.874c-3.436,17.9-1.869,294.435-1.869,294.435s-35.05,1.628-35.974-3.083
		c-1.506-7.683-1.868-286.728-1.868-286.728"/>
	<path fill="#8A5631" d="M305.644,932.689c6.243,16.957,59.313,302.72,59.313,302.72s10.117-3.879,15.921-8.094
		c2.654-1.927-37.149-290.772-37.149-290.772L305.644,932.689z"/>
	<path fill="#936037" d="M289.411,932.689c6.243,16.957,48.543,299.636,48.543,299.636s28.252,7.323,28.408,2.506
		c0.254-7.854-38.866-298.288-38.866-298.288L289.411,932.689z"/>
	<path fill="#8A5631" d="M740.481,948.104c-3.436,17.9-0.117,289.424-0.117,289.424s-4.632,12.71-14.833,12.204
		c-7.069-0.351-23.332,0.516-23.71-1.413c-1.506-7.683-1.052-295.59-1.052-295.59"/>
	<path fill="#936037" d="M727.4,955.299c-3.436,17.9-1.869,294.434-1.869,294.434s-35.05,1.629-35.974-3.083
		c-1.506-7.683-1.868-286.727-1.868-286.727"/>
	<path fill="#282830" fill-opacity="0.36" d="M887.888,853.82c-79.004-12.738-427.304-9.018-460.483-6.131
		c-28.088,2.445-151.889,33.615-178.266,75.436c-4.489,7.115,51.484,54.511,85.122,68.613c26.125,10.953,476.176,26.749,498.793,5.2
		C869.319,962.387,887.888,853.82,887.888,853.82z"/>
	<path fill="#936037" d="M890.503,883.776c-0.374-1.691-2.615-33.505-2.615-33.505c-79.004-11.678-427.304-8.268-460.483-5.62
		c-28.088,2.241-161.913,34.651-188.29,72.991c-4.488,6.523-0.561,27.932,4.49,36.695c10.293,17.857,540.846,53.942,563.463,34.188
		C843.333,956.85,894.09,899.994,890.503,883.776z"/>
	<path fill="#B17F4A" d="M887.888,850.271c-7.96-11.915-423.147-24.406-460.483-21.721c-35.764,2.572-198.111,73.717-191.938,96.096
		c4.952,17.951,549.778,52.281,571.601,33.619C847.474,923.711,896.719,863.49,887.888,850.271z"/>
	<g>
		<path fill="#FFFFFF" d="M759.732,896.291c-2.51,8.949-116.902,65.633-144.185,80.133
			c-19.642,10.439-72.664,104.787-79.691,124.174c-3.523,9.721-22.035-12.252-60.737-82.518
			c-12.048-21.872-27.474-46.669-36.142-59.154c-16.565-23.861-42.667-68.103-43.169-80.032
			c-0.591-14.057,153.099-55.675,153.099-55.675l164.771,10.688C713.677,833.906,762.242,887.344,759.732,896.291z"/>
		<g>
			<defs>
				<path id="SVGID_3_" d="M759.732,896.292c-2.51,8.948-116.902,65.633-144.185,80.132
					c-19.642,10.439-72.664,104.787-79.691,124.174c-3.523,9.721-22.035-12.252-60.737-82.518
					c-12.048-21.872-27.474-46.669-36.142-59.154c-16.565-23.86-42.667-68.102-43.169-80.032
					c-0.591-14.057,153.099-55.675,153.099-55.675l164.771,10.688C713.677,833.906,762.242,887.344,759.732,896.292z"/>
			</defs>
			<clipPath id="SVGID_4_">
				<use xlink:href="#SVGID_3_"  overflow="visible"/>
			</clipPath>
			<g clip-path="url(#SVGID_4_)">
				<g>
					<path opacity="0.76" fill="#F59493" d="M495.218,782.788c-41.759,38.826-96.062,92.115-102.874,152.101
						c-6.451,56.81,6.566,119.571,27.682,171.839c7.2-0.903,10.657-1.387,17.436-2.389
						c-18.647-51.377-28.939-108.484-24.731-163.381c4.759-62.086,59.26-116.819,102.545-156.583
						C507.376,783.554,503.397,783.223,495.218,782.788z"/>
					<path opacity="0.76" fill="#F59493" d="M553.4,791.27c-39.991,35.725-88.428,85.652-97.205,141.061
						c-8.879,56.057,2.095,118.006,17.076,171.863c6.361-1.097,9.537-1.65,16.025-2.731c-11.944-53.646-20.663-112.74-11.633-167.64
						c9.024-54.868,55.623-104.074,95.927-139.122C565.344,793.277,561.339,792.576,553.4,791.27z"/>
					<path opacity="0.76" fill="#F59493" d="M616.599,803.019c-36.349,31.069-75.127,74.338-89.136,121.232
						c-16.648,55.73-8.257,120.621-1.862,177.212c7.186-0.929,10.91-1.364,18.76-2.141c-2.957-55.587-9.218-117.398,8.088-171.425
						c14.981-46.77,52.272-90.383,88.934-121.72C631.001,805.01,626.08,804.362,616.599,803.019z"/>
					<path opacity="0.76" fill="#F59493" d="M688.826,810.854c-32.259,34.926-72.142,73.007-87.887,119.072
						c-18.321,53.604-13.076,115.299-13.107,170.93c8.434-0.643,12.651-0.962,21.084-1.601c0.11-52.648-3.258-108.184,9.917-159.698
						c13.254-51.823,61.006-87.973,92.815-128.577C702.455,811.091,697.881,811.078,688.826,810.854z"/>
					<path opacity="0.76" fill="#F59493" d="M757.743,810.755c-25.512,44.809-82.803,72.272-97.283,123.218
						c-14.728,51.814-7.767,113.769-7.558,166.883c8.43-0.637,12.644-0.958,21.067-1.598c-0.328-51.103-4.561-105.403,4.396-156.017
						c10.382-58.667,78.362-82.336,102.715-133.938C771.773,809.932,767.094,810.237,757.743,810.755z"/>
					<path opacity="0.76" fill="#F59493" d="M827.194,807.983c-18.412,56.821-98.196,72.09-108.132,132.304
						c-8.459,51.271-1.646,108.823-1.096,160.568c8.424-0.643,12.637-0.966,21.065-1.615c-0.18-28.698-0.429-57.396-0.432-86.096
						c-0.003-23.752-2.905-50.315,0.784-73.795c9.697-61.721,96.022-72.125,110.247-132.682
						C840.782,807.129,836.283,807.406,827.194,807.983z"/>
					<path opacity="0.76" fill="#F59493" d="M369.843,1025.582c64.102-0.674,127.282-10.79,191.505-7.094
						c65.312,3.759,130.661,5.064,196.073,5.375c-0.819-8.434-1.232-12.652-2.052-21.093c-64.951-0.696-129.61-3.258-194.395-7.854
						c-65.394-4.639-129.461,7.518-194.681,8.498C367.45,1012.229,368.138,1016.657,369.843,1025.582z"/>
					<path opacity="0.76" fill="#F59493" d="M385.257,1086.053c58.699-0.137,117.105-6.095,175.83-5.248
						c65.432,0.943,130.898,0.562,196.334,0.281c-0.802-8.427-1.208-12.64-2.023-21.069c-67.295,0.106-134.602-0.125-201.866-2.302
						c-59.008-1.909-117.677,5.325-176.656,5.271C379.788,1072.135,381.443,1076.746,385.257,1086.053z"/>
					<path opacity="0.76" fill="#F59493" d="M365.092,959.301c68.658-1.864,135.187-17.175,204.179-10.395
						c62.708,6.163,125.128,9.342,188.15,9.893c-0.809-8.436-1.66-12.771-1.896-21.048c-61.113,0.067-121.583-2.475-182.345-9.016
						c-70.64-7.604-138.692,7.718-209.037,8.979C364.182,946.406,364.62,950.647,365.092,959.301z"/>
					<path opacity="0.76" fill="#F59493" d="M378.836,891.426c68.889,0.519,137.04-3.931,205.752,3.612
						c64.903,7.125,130.112,5.18,195.268,4.152c6.38-6.676,10.143-9.875,17.806-16.254c-67.975,0.06-135.836,1.705-203.492-6.116
						c-67.387-7.79-134.68-7.828-202.395-8.979C385.929,877.218,383.255,881.983,378.836,891.426z"/>
					<path opacity="0.76" fill="#F59493" d="M428.255,822.585c67.76,1.5,134.705,10.958,201.926,18.849
						c70.876,8.319,142.098,6.228,213.3,8.158c6.555-6.656,9.478-10.074,13.677-17.299c-71.604-1.771-143.195,1.39-214.5-6.848
						c-65.558-7.573-130.436-21.204-196.571-22.634C439.062,810.225,435.41,814.227,428.255,822.585z"/>
				</g>
			</g>
			<line clip-path="url(#SVGID_4_)" fill="#F59493" x1="570.784" y1="1083.958" x2="577.34" y2="1096.618"/>
		</g>
	</g>
	<path fill="#A4B767" d="M708.481,152.897c-12.614-17.869-31.534-37.84-12.614-31.534s2.103,23.125,18.92,6.307
		c16.818-16.818,7.358-28.38,16.818-16.818s-5.256,26.278,9.46,11.562c14.716-14.715,11.562-43.096,14.716-14.715
		c3.153,28.38-24.176,51.505-24.176,51.505s32.586,37.398,38.192,57.721c6.284,22.778,33.987,36.441,12.965,36.441
		s-5.606,17.87-1.052,43.448c2.619,14.708,2.453,29.434,3.504,36.791c1.052,7.358-32.586-23.476-32.586-11.913
		s-8.059,33.638-15.066,32.586s-4.702-21.253-8.76-22.776c-5.606-2.102-15.066,26.363-18.22,21.107
		c-3.153-5.255-14.017-21.458-17.521-14.45c-4.231,8.461-6.302,17.687-11.91,16.552c-5.609-1.134-6.311-27.414-6.311-27.414
		s-30.134,18.22-26.279-9.461c1.169-8.393,16.092-47.545,11.563-44.149c-14.016,10.512-15.768-6.307-3.854-25.929
		C665.592,232.406,708.481,152.897,708.481,152.897z"/>
	<path fill="#B5B568" d="M874.557,174.855c-12.613-17.869-25.729-47.427-9.336-36.067c15.643,10.84,15.417,22.425,15.643,10.84
		c0.465-23.78,7.358-28.38,16.818-16.818s-5.256,26.278,9.46,11.562c14.716-14.715,14.716-14.715,14.716-14.715
		c3.153,28.38-24.176,51.505-24.176,51.505s32.945,51.531,38.551,71.854c6.284,22.777,23.537,84.912,8.877,69.845
		c-16.818-17.286-22.082-0.209-20.089,25.695c1.868,24.294,1.401,35.039,1.401,35.039c1.051,7.358-15.885-31.184-15.885-19.622
		c0,11.562-1.238,58.373-5.605,52.792c-8.41-10.746-8.361-42.883-8.877-47.186c-4.897-40.879-16.242,43.882-19.396,38.626
		s-6.066-53.577-9.57-46.569c-4.23,8.461-4.201,59.534-9.811,58.398c-5.609-1.134-7.942-58.865-7.942-58.865
		s-18.805,59.917-14.95,32.236c1.169-8.394,4.998-63.237,1.401-58.866c-30.367,36.908-14.482-18.921,0.935-73.115
		C841.637,244.148,874.557,174.855,874.557,174.855z"/>
	<g>
		<g>
			<path fill="#9B994A" d="M923.248,292.953c-0.187-16.9-4.946-34.361-9.796-50.443c-2.597-8.612-5.695-17.066-9.119-25.381
				c-3.104-7.535-6.236-16.937-11.982-22.891c-1.639-1.699-2.282,2.051-2.02,2.999c2.225,8.031,6.943,15.502,10.3,23.113
				c3.364,7.63,6.301,15.443,8.95,23.347c2.771,8.267,4.995,16.682,7.03,25.156c1.94,8.077,2.974,16.37,4.957,24.42
				C921.915,294.677,923.263,294.312,923.248,292.953L923.248,292.953z"/>
		</g>
	</g>
	<g>
		<g>
			<path fill="#9B994A" d="M896.594,341.546c-2.844-17.697-4.528-35.548-5.237-53.456c-0.333-8.394-0.417-16.789-0.276-25.188
				c0.128-7.675,1.841-16.375,0.097-23.896c-0.118-0.511-0.682-0.964-0.97-0.278c-2.755,6.567-1.896,15.199-2.038,22.185
				c-0.185,9.043-0.014,18.092,0.386,27.127c0.806,18.25,3.17,36.409,6.471,54.365C895.432,344.616,896.842,343.093,896.594,341.546
				L896.594,341.546z"/>
		</g>
	</g>
	<g>
		<g>
			<path fill="#9B994A" d="M872.669,298.393c1.309,4.711-3.947,9.967-4.177,14.794c-0.129,2.694,0.322,6.92,3.177,8.256
				c2.372,1.11,4.84,0.804,6.769-0.982c1.487-1.377,1.628-4.808,0.138-6.196c-0.652-0.608-1.178,0.277-1.292,0.861
				c0.097-0.494,0.159-0.2-0.482,0.287c-0.712,0.539-1.551,0.7-2.417,0.776c-4.167,0.369-1.964-5.385-1.082-7.399
				c1.865-4.26,3.278-8.183,1.855-12.785C874.213,292.949,872.146,296.509,872.669,298.393L872.669,298.393z"/>
		</g>
	</g>
	<g>
		<g>
			<path fill="#9B994A" d="M896.3,299.304c3.338,3.353,6.698,6.67,9.871,10.18c0.674,0.745,1.408,0.305,1.841-0.424
				c3.229-5.445,2.962-12.769-0.104-18.214c-0.408,1.753-0.816,3.506-1.226,5.259c1.331-0.168,1.363-1.871,0.245-2.404
				c-0.726-0.345-0.407,0.16-0.563-0.507c-0.205-0.874-1.013-1.386-1.794-0.127c-1.287,2.076,0.06,5.513,1.912,6.703
				c4.376,2.809,6.785-10.569,0.31-9.849c-2.006,0.223-1.945,3.994-1.226,5.259c1.84,3.238,1.924,6.341,0.38,9.717
				c0.613-0.141,1.228-0.283,1.841-0.424c-3.491-3.021-6.779-6.249-10.107-9.446C895.972,293.385,895.171,298.17,896.3,299.304
				L896.3,299.304z"/>
		</g>
	</g>
	<g>
		<g>
			<path fill="#9B994A" d="M909.976,262.884c-0.501-3.851-1.793-7.396-3.676-10.786c-0.155,1.006-0.311,2.013-0.467,3.019
				c3.143,2.846,6.5,4.583,10.665,5.452c1.293,0.27,0.938-4.35,0.748-4.906c-0.658-1.92-1.43-5.421-3.108-6.641
				c-0.823-0.598-0.79,2.52-0.752,2.802c0.386,2.867,1.514,5.692,2.647,8.343c0.188-1.787,0.378-3.573,0.566-5.36
				c-3.604-0.077-7.295-1.054-10.425-2.877c-0.773-0.451-0.777,2.574-0.467,3.019c1.949,2.794,3.043,5.854,3.523,9.222
				C909.465,265.805,910.06,263.528,909.976,262.884L909.976,262.884z"/>
		</g>
	</g>
	<g>
		<g>
			<path fill="#9B994A" d="M879.758,211.078c-5.88,5.82-9.566,14.946-12.979,22.393c-4.159,9.079-7.192,18.697-9.495,28.4
				c-2.121,8.939-3.285,18.071-3.852,27.231c-0.284,4.59-1.067,14.264,5.477,14.599c1.119,0.058,1.205-3.959,0.294-4.351
				c-6.274-2.701-3.291-14.671-2.716-19.843c0.877-7.891,2.529-15.67,4.631-23.32c2.121-7.722,5.021-15.205,8.278-22.512
				c3.161-7.088,7.542-13.509,10.769-20.531C880.295,212.861,880.226,210.615,879.758,211.078L879.758,211.078z"/>
		</g>
	</g>
	<g>
		<g>
			<path fill="#9B994A" d="M875.923,249.344c-9.849,24.511-16.066,50.59-17.561,76.997c-0.048,0.85,0.009,3.418,1.231,3.607
				c2.164,0.334,1.087-0.054,3.782-0.586c0.859-0.169,0.612-2.328,0.186-2.793c-2.072-2.267-1.519-2.274-3.501-3.656
				c0.275,1.475,0.551,2.95,0.826,4.425c1.794-25.616,6.852-50.465,16.259-74.41C877.568,251.854,876.875,246.975,875.923,249.344
				L875.923,249.344z"/>
		</g>
	</g>
	<g>
		<g>
			<path fill="#9B994A" d="M903.859,372.923c1.47-14.49,1.61-30.834-4.623-44.361c-0.905-1.967-2.533-0.164-2.213,1.375
				c2.995,14.396,6.635,28.079,5.871,42.97C902.846,373.831,903.769,373.807,903.859,372.923L903.859,372.923z"/>
		</g>
	</g>
	<g>
		<g>
			<path fill="#9B994A" d="M887.924,169.876c2.761-2.195,4.665-4.98,6.222-8.12c0.267-0.538,0.075-4.499-0.751-3.661
				c-2.356,2.387-4.038,5.038-5.235,8.167c0.51,0.569,1.02,1.139,1.529,1.708c0.007-7.7-1.306-15.154-3.982-22.377
				c-0.676-1.824-1.563,0.218-1.687,1.116c-0.604,4.399-0.918,8.834-0.721,13.277c0.141,3.161-0.258,8.186,1.826,10.811
				c0.551,0.694,0.892-0.538,0.929-0.949c0.242-2.717-0.218-5.158-0.501-7.884c-0.48-4.613-0.229-9.255,0.365-13.841
				c-0.562,0.372-1.124,0.744-1.687,1.116c2.311,6.047,3.539,12.221,3.631,18.698c0.01,0.677,0.789,3.755,1.529,1.708
				c1.041-2.88,2.545-5.277,4.578-7.553c-0.318-1.148-0.637-2.296-0.955-3.444c-1.445,3.393-3.27,6.397-5.351,9.421
				C887.466,168.359,887.471,170.237,887.924,169.876L887.924,169.876z"/>
		</g>
	</g>
	<g>
		<g>
			<path fill="#9B994A" d="M880.25,167.15c0.111-0.32,0.188-0.647,0.206-0.987c0.035-0.642-0.122,0.576,0.021-0.258
				c0.044-0.259,0.017-0.51-0.009-0.768c-0.078-0.82-0.628-1.639-1.185-2.212c-1.119-1.155-3.288-1.466-3.934,0.356
				c-0.136,0.381-0.132,1.055,0.267,1.292c0.309,0.184,0.802,0.118,1.16,0.111c0.417-0.008,0.854,0.167,1.244,0.299
				c0.405,0.137,0.75,0.378,1.043,0.685c0.262,0.274,0.309,0.684,0.593,0.935c-0.077-0.19-0.154-0.381-0.231-0.571
				c0.031,0.202,0.022,0.248-0.021,0.451C879.277,167.083,879.913,168.12,880.25,167.15L880.25,167.15z"/>
		</g>
	</g>
	<g>
		<g>
			<path fill="#9B994A" d="M854.913,300.484c-4.445,8.364-7.401,17.209-8.967,26.548c-0.79,4.716-1.073,9.535-1.039,14.31
				c0.03,4.259-0.021,9.055,2.029,12.887c0.448,0.837,1.133,0.087,1.202-0.559c0.835-7.812-0.76-15.71,0.061-23.622
				c0.979-9.439,3.841-18.655,7.954-27.181C856.619,301.9,855.828,298.763,854.913,300.484L854.913,300.484z"/>
		</g>
	</g>
	<g>
		<g>
			<path fill="#9B994A" d="M870.261,330.997c0.807,7.081,1.661,14.147,2.322,21.244c0.646,6.931,0.524,13.946,1.728,20.812
				c0.121,0.689,0.735,0.75,0.852,0.015c2.178-13.767-0.434-29.507-3.745-42.915C871.086,328.811,870.173,330.229,870.261,330.997
				L870.261,330.997z"/>
		</g>
	</g>
	<g>
		<path fill="#A4B767" d="M708.481,152.897c-12.614-17.869-31.534-37.84-12.614-31.534s2.103,23.125,18.92,6.307
			c16.818-16.818,7.358-28.38,16.818-16.818s-5.256,26.278,9.46,11.562c14.716-14.715,11.562-43.096,14.716-14.715
			c3.153,28.38-24.176,51.505-24.176,51.505s32.586,37.398,38.192,57.721c6.284,22.778,33.987,36.441,12.965,36.441
			s-5.606,17.87-1.052,43.448c2.619,14.708,2.453,29.434,3.504,36.791c1.052,7.358-32.586-23.476-32.586-11.913
			s-8.059,33.638-15.066,32.586s-4.702-21.253-8.76-22.776c-5.606-2.102-15.066,26.363-18.22,21.107
			c-3.153-5.255-14.017-21.458-17.521-14.45c-4.231,8.461-6.302,17.687-11.91,16.552c-5.609-1.134-6.311-27.414-6.311-27.414
			s-30.134,18.22-26.279-9.461c1.169-8.393,16.092-47.545,11.563-44.149c-14.016,10.512-15.768-6.307-3.854-25.929
			C665.592,232.406,708.481,152.897,708.481,152.897z"/>
		<g>
			<g>
				<path fill="#A4B767" d="M768.311,304.185c0.326-20.294-2.152-40.533-7.717-60.068c-2.787-9.784-6.292-19.366-10.52-28.621
					c-4.137-9.057-8.716-19.262-15.457-26.717c-0.438-0.483-0.805,3.197-0.499,3.794c8.874,17.339,18.513,33.242,24.316,52.048
					c5.95,19.281,8.741,39.373,8.445,59.538C766.835,307.21,768.261,307.3,768.311,304.185L768.311,304.185z"/>
			</g>
			<g>
				<path fill="#BBCE6E" d="M752.896,306.435c1.544-18.651,0.624-37.313-3.011-55.688c-3.55-17.944-8.814-38.445-19.249-53.729
					c-0.856-1.254-1.156,2.295-0.951,2.822c6.603,17.008,13.959,33.055,17.838,51.036c3.908,18.118,5.255,36.704,4.359,55.206
					C751.831,307.156,752.773,307.912,752.896,306.435L752.896,306.435z"/>
			</g>
			<g>
				<path fill="#BBCE6E" d="M718.48,309.396c2.977-19.938,4.484-40.063,4.236-60.226c-0.115-9.323-0.547-18.649-1.378-27.935
					c-0.797-8.897-1.229-18.601-4.058-27.131c-0.303-0.91-0.733,0.412-0.723,0.762c0.568,18.577,3.99,36.958,4.26,55.633
					c0.28,19.411-0.916,38.781-3.503,58.018C717.134,309.862,718.154,311.587,718.48,309.396L718.48,309.396z"/>
			</g>
			<g>
				<path fill="#BBCE6E" d="M698.244,334.441c-1.933-15.858-1.484-32.192,1.268-47.929c1.237-7.071,2.907-14.082,5.075-20.926
					c1.187-3.743,4.978-9.719,2.913-13.735c-0.614-1.194-1.608-1.882-2.887-1.098c-1.054,0.646-1.256,1.565-1.373,2.738
					c-0.054,0.532,0.194,1.357,0.663,1.673c-1.271-0.854-5.876,15.666-6.245,17.161c-1.688,6.851-2.85,13.801-3.606,20.813
					c-1.529,14.172-0.743,28.213,1.563,42.246C696.017,337.83,698.492,336.47,698.244,334.441L698.244,334.441z"/>
			</g>
			<g>
				<path fill="#BBCE6E" d="M666.855,314.838c3.526-17.573,7.099-35.137,10.609-52.713c1.689-8.46,3.295-16.938,5.081-25.379
					c1.053-4.977,2.182-9.941,3.533-14.847c0.877-3.184,2.782-14.01,6.412-14.837c0.931-0.212,0.569-3.058,0.198-3.6
					c-0.284-0.415-0.569-0.83-0.854-1.245c-0.062-0.032-0.125-0.063-0.188-0.096c-5.511,1.944-6.652,13.907-7.851,18.722
					c-2.341,9.406-4.108,18.941-5.954,28.453c-4.08,21.021-8.062,42.062-12.099,63.091
					C665.526,313.523,666.256,317.819,666.855,314.838L666.855,314.838z"/>
			</g>
			<g>
				<path fill="#BBCE6E" d="M717.733,325.548c1.248-3.256,1.561-8.066-1.261-10.556c-0.941-0.831-1.29,2.026-1.224,2.392
					c-0.23-1.275,0.06,0.206,0.09,0.498c0.06,0.59,0.135,1.194,0.164,1.787c0.032,0.631,0.042,1.292-0.206,1.889
					c-0.6,1.441-0.842,3.489,0.076,4.864C716.333,327.858,717.289,326.706,717.733,325.548L717.733,325.548z"/>
			</g>
			<g>
				<path fill="#BBCE6E" d="M735.345,295.916c1.504-8.104,2.736-21.819-3.392-28.448c-0.917-0.992-1.239,1.341-1.184,1.834
					c0.977,8.61,3.121,16.01,1.511,24.77C731.714,297.151,734.515,300.388,735.345,295.916L735.345,295.916z"/>
			</g>
			<g>
				<path fill="#BBCE6E" d="M714.6,274.963c1.998-8.554,1.096-17.648,1.053-26.36c-0.049-10.216,0.418-20.676-0.776-30.839
					c-0.187-1.582-1.066-1.708-1.218-0.021c-0.759,8.394-0.348,16.892-0.204,25.309c0.158,9.322,1.634,19.838-0.463,28.982
					C712.644,273.55,713.766,278.532,714.6,274.963L714.6,274.963z"/>
			</g>
			<g>
				<path fill="#BBCE6E" d="M771.474,247.768c-4.65-14.715-10.977-31.203-21.407-42.844c-0.749-0.836-1.032,3.307-0.694,3.94
					c7.615,14.275,15.485,27.617,20.415,43.172C770.703,254.921,771.916,249.166,771.474,247.768L771.474,247.768z"/>
			</g>
			<g>
				<path fill="#BBCE6E" d="M698.844,229.522c0.805-11.516,3.093-22.917,6.842-33.841c3.218-9.379,7.281-20.581,14.283-27.798
					c0.418-0.43,0.516-1.631,0.036-2.059c-4.232-3.776-6.544,2.661-8.271,6.024c-3.127,6.091-5.699,12.475-7.856,18.969
					c-4.167,12.548-6.358,25.485-7.114,38.667C696.583,232.627,698.626,232.636,698.844,229.522L698.844,229.522z"/>
			</g>
			<g>
				<path fill="#BBCE6E" d="M763.666,289.965c1.188,4.487,2.926,8.802,4.773,13.056c1.191,2.743,2.786,8.199,5.747,9.35
					c0.492,0.192,0.443-1.007,0.398-1.24c-0.801-4.177-2.901-7.805-4.691-11.625c-1.807-3.855-3.255-7.865-5.073-11.711
					C764.002,286.068,763.491,289.307,763.666,289.965L763.666,289.965z"/>
			</g>
			<g>
				<path fill="#BBCE6E" d="M746.228,310.524c1.488,2.051,1.121,3.281-1.104,3.691c-1.615,1.605-2.415,1.276-2.399-0.986
					c-0.469-2.085-0.455-4.313,0.025-6.395c0.537-2.328,1.726-4.297,2.151-6.659c0.043-0.24,0.066-1.711-0.507-1.638
					c-2.889,0.368-3.653,6.623-3.921,8.927c-0.468,4.021-0.046,8.785,1.911,12.402c1.839,3.4,4.614,2.99,5.861-0.582
					c1.368-3.92,0.879-8.283-0.507-12.103C746.892,304.846,745.786,309.305,746.228,310.524L746.228,310.524z"/>
			</g>
			<g>
				<path fill="#BBCE6E" d="M735.606,221.441c1.51,2.738,3.021,5.477,4.53,8.216c0.755,1.369,1.518,2.735,2.266,4.108
					c0.885,1.625,2.256,3.327-0.497,2.136c-4.607-1.993-7.256-8.465-9.438-12.616c-0.495-0.943-0.691,2.221-0.615,2.569
					c0.68,3.111,8.667,21.738,13.009,14.465c1.413-2.367,1.033-5.93,0.088-8.369c-2.068-5.336-5.651-10.408-8.433-15.411
					C735.783,215.222,734.975,220.297,735.606,221.441L735.606,221.441z"/>
			</g>
			<g>
				<path fill="#BBCE6E" d="M689.865,248.225c-5.484,5.587-12.602,12.443-15.22,19.975c-0.14,0.402-0.405,3.617,0.485,3.212
					c1.438-0.654,2.266-2.386,3.168-3.645c1.264-1.761,2.565-3.491,3.922-5.182c2.508-3.124,5.186-6.1,7.981-8.969
					C691.262,252.527,690.328,247.752,689.865,248.225L689.865,248.225z"/>
			</g>
			<g>
				<path fill="#BBCE6E" d="M673.761,294.231c-0.535,0.833-0.929,1.701-1.192,2.655c-0.119,0.426-0.222,0.858-0.333,1.287
					c-0.075,0.289-0.151,0.557-0.193,0.856c-0.018,0.132-0.033,0.265-0.047,0.397c-0.046,0.368-0.033,0.314,0.038-0.162
					c-0.439,0.839-0.221,3.536,1.268,3.303c1.73-0.27,3.005-0.999,4.18-2.299c1.22-1.349,2.341-3.462,1.423-5.271
					c-0.356-0.701-0.772-1.083-1.571-0.945c-1.127,0.195-1.452,1.621-2.056,2.412c-0.575,0.754-1.471,1.385-2.309,1.813
					c0.272,0.004,0.544,0.009,0.816,0.014c-0.043-0.024-0.086-0.047-0.129-0.071c0.26,0.294,0.52,0.588,0.779,0.882
					c-0.557-1.352-0.324-2.481,0.276-3.794C674.981,294.72,674.319,293.364,673.761,294.231L673.761,294.231z"/>
			</g>
			<g>
				<path fill="#BBCE6E" d="M729.751,175.536c2.366,2.169,4.484,4.548,6.287,7.207c1.614,2.382,2.871,4.999,4.719,7.218
					c0.634,0.762,1.239-0.223,1.146-0.885c-0.924-6.581-6.015-12.264-10.835-16.496C729.595,171.288,728.61,174.49,729.751,175.536
					L729.751,175.536z"/>
			</g>
			<g>
				<path fill="#BBCE6E" d="M728.713,150.677c4.667-3.285,6.342-10.25,3.905-15.401c-0.065-0.132-0.169-0.209-0.311-0.233
					c-0.102,0.017-0.203,0.034-0.305,0.051c-0.322,0.054-0.369,0.696-0.364,0.924c0.046,1.984,0.778,3.831,0.473,5.833
					c-0.383,2.507-1.753,4.665-3.61,6.341C728.021,148.625,728.155,151.07,728.713,150.677L728.713,150.677z"/>
			</g>
			<g>
				<path fill="#BBCE6E" d="M725.477,144.989c1.741-2.364,1.521-5.793-0.087-8.171c-1.458-2.154-4.168-3.536-6.056-1.067
					c-0.363,0.476-0.269,1.385,0.259,1.698c1.169,0.694,5.178,2.463,3.845,4.252C722.298,143.23,723.833,147.222,725.477,144.989
					L725.477,144.989z"/>
			</g>
			<g>
				<path fill="#BBCE6E" d="M718.5,147.724c-1.142-2.254-2.485-4.315-4.064-6.288c-1.233-1.542-2.996-4.151-5.053-4.538
					c-0.578-0.109-0.4,2.125-0.24,2.394c1.163,1.943,2.961,3.43,4.457,5.119c1.603,1.81,3.037,3.781,4.418,5.764
					C718.536,150.917,718.757,148.231,718.5,147.724L718.5,147.724z"/>
			</g>
			<g>
				<path fill="#BBCE6E" d="M711.568,138.843c-1.098,0.062-2.132-0.134-3.096-0.68c-0.819-0.464-1.46-1.21-2.277-1.647
					c-0.877-0.468-0.852,1.589-0.775,1.957c0.583,2.812,3.309,4.541,6.076,4.529C712.946,142.997,712.948,138.766,711.568,138.843
					L711.568,138.843z"/>
			</g>
		</g>
	</g>
</g>
</svg>
